<?xml version="1.0" encoding="UTF-8"?>
<svg xmlns="http://www.w3.org/2000/svg" xmlns:xlink="http://www.w3.org/1999/xlink" width="6700px" height="6700px" viewBox="0 0 6700 6699" version="1.1">
<defs>
<filter id="alpha" filterUnits="objectBoundingBox" x="0%" y="0%" width="100%" height="100%">
  <feColorMatrix type="matrix" in="SourceGraphic" values="0 0 0 0 1 0 0 0 0 1 0 0 0 0 1 0 0 0 1 0"/>
</filter>
<mask id="mask0">
  <g filter="url(#alpha)">
<rect x="0" y="0" width="6700" height="6699" style="fill:rgb(0%,0%,0%);fill-opacity:0.988235;stroke:none;"/>
  </g>
</mask>
<clipPath id="clip1">
  <rect x="0" y="0" width="6700" height="6699"/>
</clipPath>
<g id="surface5" clip-path="url(#clip1)">
<path style=" stroke:none;fill-rule:evenodd;fill:rgb(99.607843%,100%,99.607843%);fill-opacity:1;" d="M 4277.570312 1188.175781 C 4277.890625 1189.734375 4278.894531 1190.394531 4280.582031 1190.183594 C 4280.753906 1191.511719 4280.421875 1192.6875 4279.578125 1193.703125 C 4280.535156 1194.183594 4281.539062 1194.355469 4282.59375 1194.203125 C 4290.292969 1212.601562 4298.832031 1230.6875 4308.21875 1248.464844 C 4309.363281 1251.078125 4310.199219 1253.757812 4310.730469 1256.503906 C 4313.445312 1256.382812 4314.117188 1257.386719 4312.742188 1259.515625 C 4315.234375 1260.441406 4315.90625 1261.949219 4314.75 1264.039062 C 4315.707031 1264.519531 4316.710938 1264.691406 4317.765625 1264.539062 C 4317.464844 1266.652344 4317.796875 1268.660156 4318.773438 1270.570312 C 4360.507812 1360.71875 4394.011719 1454.667969 4419.265625 1552.414062 C 4436.019531 1622.339844 4447.738281 1694.515625 4454.441406 1768.949219 C 4455.03125 1769.160156 4455.535156 1769.492188 4455.945312 1769.953125 C 4457.566406 1793.425781 4459.574219 1817.542969 4461.976562 1842.300781 C 4470.851562 2026.25 4479.894531 2210.128906 4489.109375 2393.933594 C 4489.53125 2395.109375 4490.207031 2396.117188 4491.121094 2396.949219 C 4491.945312 2408.917969 4491.773438 2420.804688 4490.617188 2432.621094 C 4491.574219 2433.101562 4492.578125 2433.273438 4493.632812 2433.121094 C 4493.460938 2446.183594 4493.632812 2459.246094 4494.136719 2472.308594 C 4504.285156 2655.171875 4514.503906 2838.378906 4524.785156 3021.933594 C 4525.378906 3022.144531 4525.882812 3022.476562 4526.292969 3022.941406 C 4534.875 3189.484375 4543.578125 3356.957031 4552.421875 3525.339844 C 4554.835938 3582.273438 4557.175781 3639.214844 4559.457031 3696.15625 C 4559.878906 3697.332031 4560.550781 3698.335938 4561.46875 3699.171875 C 4562.289062 3713.808594 4562.128906 3728.378906 4560.964844 3742.878906 C 4561.796875 3743.714844 4562.644531 3744.558594 4563.476562 3745.390625 C 4566.824219 3837.621094 4570.167969 3929.730469 4573.527344 4021.710938 C 4576.320312 4136.25 4577.152344 4250.796875 4576.039062 4365.351562 C 4575.578125 4397.847656 4574.742188 4430.34375 4573.527344 4462.816406 C 4570.683594 4502.929688 4567.507812 4543.121094 4563.980469 4583.394531 C 4562.792969 4583.171875 4561.789062 4583.503906 4560.964844 4584.398438 C 4562.550781 4589.957031 4562.050781 4595.3125 4559.457031 4600.476562 C 4551.257812 4662.742188 4539.699219 4724.035156 4524.785156 4784.355469 C 4508.695312 4854.246094 4488.929688 4923.921875 4465.496094 4993.351562 C 4451.636719 5031.433594 4437.394531 5069.617188 4422.785156 5107.898438 C 4422.453125 5107.566406 4422.109375 5107.226562 4421.777344 5106.894531 C 4420.332031 5108.703125 4420.160156 5110.714844 4421.277344 5112.921875 C 4418.824219 5112.773438 4418.152344 5113.617188 4419.265625 5115.4375 C 4418.433594 5116.269531 4417.589844 5117.113281 4416.753906 5117.949219 C 4392.375 5178.808594 4361.390625 5235.410156 4323.796875 5287.757812 C 4315.023438 5296.539062 4307.324219 5306.257812 4300.683594 5316.898438 C 4288.671875 5330.140625 4277.289062 5343.363281 4266.515625 5356.585938 C 4265.558594 5357.070312 4264.554688 5357.242188 4263.5 5357.089844 C 4263.761719 5358.578125 4263.429688 5359.914062 4262.496094 5361.109375 C 4232.375 5393.394531 4202.226562 5424.039062 4172.050781 5453.046875 C 4085.34375 5538.746094 3989.199219 5611.765625 3883.628906 5672.09375 C 3883.960938 5672.425781 3884.300781 5672.769531 3884.632812 5673.097656 C 3858.824219 5686.472656 3835.039062 5699.535156 3813.28125 5712.285156 C 3791.453125 5722.011719 3770.683594 5732.394531 3750.976562 5743.433594 C 3727.921875 5753.132812 3704.464844 5763.179688 3680.628906 5773.578125 C 3631.507812 5794.417969 3580.925781 5813.179688 3528.882812 5829.847656 C 3512.066406 5834.238281 3495.648438 5838.921875 3479.636719 5843.914062 C 3479.96875 5844.246094 3480.3125 5844.589844 3480.644531 5844.921875 C 3349.738281 5870.03125 3218.421875 5892.808594 3086.703125 5913.246094 C 3085.699219 5913.578125 3084.691406 5913.917969 3083.6875 5914.25 C 3022.355469 5924.730469 2959.042969 5934.78125 2893.753906 5944.394531 C 2880.4375 5946.867188 2867.042969 5949.21875 2853.554688 5951.429688 C 2789.769531 5961.960938 2724.117188 5972.007812 2656.585938 5981.574219 C 2642.867188 5985.101562 2628.796875 5987.449219 2614.375 5988.605469 C 2614.707031 5988.9375 2615.050781 5989.28125 2615.382812 5989.613281 C 2539.328125 6000.472656 2462.277344 6011.183594 2384.242188 6021.765625 C 2384.574219 6022.097656 2384.917969 6022.4375 2385.25 6022.769531 C 2378.886719 6023.101562 2372.515625 6023.441406 2366.152344 6023.773438 C 2366.484375 6024.105469 2366.828125 6024.449219 2367.160156 6024.78125 C 2360.457031 6025.453125 2353.761719 6025.453125 2347.058594 6024.78125 C 2346.539062 6024.214844 2346.195312 6023.542969 2346.054688 6022.769531 C 2347.511719 6021.203125 2349.191406 6019.855469 2351.078125 6018.75 C 2410.242188 6006.28125 2469.863281 5994.222656 2529.960938 5982.578125 C 2582.328125 5971.847656 2635.921875 5961.796875 2690.753906 5952.433594 C 2709.527344 5947.46875 2727.945312 5943.792969 2746.023438 5941.382812 C 2745.695312 5941.050781 2745.351562 5940.707031 2745.019531 5940.375 C 2782.96875 5933.683594 2820.492188 5926.652344 2857.574219 5919.273438 C 2910.828125 5906.785156 2966.097656 5893.722656 3023.390625 5880.089844 C 3039.761719 5874.210938 3057.179688 5869.1875 3075.648438 5865.015625 C 3238.570312 5816.796875 3384.953125 5737.417969 3514.8125 5626.878906 C 3593.628906 5558.441406 3668.328125 5482.738281 3738.914062 5399.792969 C 3738.582031 5399.460938 3738.242188 5399.121094 3737.910156 5398.789062 C 3741.035156 5395.746094 3744.050781 5392.558594 3746.957031 5389.242188 C 3784.167969 5339.597656 3817.332031 5289.6875 3846.445312 5239.527344 C 3848.636719 5235.667969 3850.976562 5231.8125 3853.480469 5227.972656 C 3853.148438 5227.640625 3852.804688 5227.300781 3852.476562 5226.96875 C 3853.628906 5226.324219 3854.636719 5225.480469 3855.488281 5224.457031 C 3858.332031 5218.105469 3861.679688 5212.078125 3865.539062 5206.371094 C 3870.402344 5194.945312 3875.769531 5184.554688 3881.617188 5175.222656 C 3888 5163.476562 3894.371094 5151.085938 3900.710938 5138.042969 C 3906.640625 5122.882812 3913.175781 5109.15625 3920.308594 5096.847656 C 3940.859375 5048.667969 3959.792969 5000.4375 3977.089844 4952.15625 C 3996.503906 4895.40625 4012.582031 4837.628906 4025.328125 4778.828125 C 4027.425781 4773.804688 4028.933594 4768.609375 4029.847656 4763.253906 C 4052.277344 4655.417969 4062.832031 4546.054688 4061.503906 4435.1875 C 4060.871094 4434.433594 4060.367188 4433.597656 4059.996094 4432.675781 C 4053.757812 4182.246094 4044.882812 3930.042969 4033.367188 3676.058594 C 4031.558594 3626.773438 4029.042969 3577.539062 4025.828125 3528.355469 C 4025.003906 3517.722656 4025.175781 3507.171875 4026.332031 3496.703125 C 4025.636719 3495.628906 4025.136719 3494.460938 4024.824219 3493.1875 C 4024.492188 3493.859375 4024.152344 3494.523438 4023.820312 3495.195312 C 4013.871094 3262.222656 4002.484375 3029.441406 3989.652344 2796.859375 C 3989.320312 2797.191406 3988.976562 2797.535156 3988.644531 2797.863281 C 3987.820312 2785.222656 3987.992188 2772.664062 3989.148438 2760.183594 C 3988.222656 2759.8125 3987.390625 2759.3125 3986.636719 2758.679688 C 3983.117188 2684.746094 3979.441406 2610.722656 3975.582031 2536.617188 C 3968.535156 2422.210938 3961.832031 2307.664062 3955.480469 2192.976562 C 3955.058594 2191.800781 3954.386719 2190.796875 3953.472656 2189.960938 C 3944.578125 2032.410156 3933.523438 1874.988281 3920.308594 1717.707031 C 3919.886719 1716.53125 3919.214844 1715.523438 3918.300781 1714.691406 C 3917.484375 1708.742188 3917.65625 1702.882812 3918.800781 1697.105469 C 3917.878906 1696.734375 3917.042969 1696.234375 3916.289062 1695.597656 C 3909.929688 1634.519531 3898.542969 1574.230469 3882.121094 1514.734375 C 3881.789062 1515.066406 3881.449219 1515.410156 3881.117188 1515.742188 C 3880.351562 1513.460938 3880.523438 1511.277344 3881.617188 1509.210938 C 3880.695312 1508.835938 3879.859375 1508.335938 3879.105469 1507.703125 C 3871.328125 1477.257812 3862.28125 1447.113281 3851.972656 1417.269531 C 3829.882812 1357.394531 3804.417969 1299.457031 3775.597656 1243.441406 C 3774.84375 1242.808594 3774.007812 1242.304688 3773.082031 1241.933594 C 3773.414062 1241.601562 3773.757812 1241.257812 3774.089844 1240.925781 C 3750.058594 1197.390625 3724.605469 1155.851562 3697.710938 1116.332031 C 3696.789062 1115.960938 3695.953125 1115.457031 3695.199219 1114.824219 C 3688.355469 1103.308594 3680.820312 1092.257812 3672.589844 1081.667969 C 3658.839844 1065.269531 3644.933594 1047.84375 3630.882812 1029.417969 C 3624.078125 1020.9375 3616.542969 1013.070312 3608.273438 1005.804688 C 3599.238281 992.734375 3588.183594 981.011719 3575.109375 970.636719 C 3575.441406 970.300781 3575.78125 969.964844 3576.113281 969.632812 C 3523.113281 915.574219 3465.832031 867.34375 3404.265625 824.941406 C 3338.5625 780.871094 3267.210938 745.035156 3190.214844 717.425781 C 3125.585938 694.375 3058.585938 682.988281 2989.222656 683.265625 C 2987.746094 682.550781 2987.074219 681.378906 2987.214844 679.746094 C 2996.699219 676.554688 3006.75 674.042969 3017.363281 672.210938 C 3017.03125 671.875 3016.6875 671.539062 3016.355469 671.207031 C 3045.148438 665.660156 3074.957031 662.644531 3105.796875 662.164062 C 3184.855469 661.402344 3263.914062 661.570312 3342.964844 662.664062 C 3401.753906 664.332031 3458.707031 669.1875 3513.808594 677.234375 C 3514.984375 677.65625 3515.988281 678.324219 3516.820312 679.246094 C 3565.832031 687.292969 3612.402344 698.007812 3656.507812 711.398438 C 3692.546875 722.296875 3728.0625 733.683594 3763.035156 745.5625 C 3762.703125 745.894531 3762.359375 746.230469 3762.03125 746.566406 C 3864.03125 783.425781 3957.824219 831.488281 4043.414062 890.753906 C 4055.675781 900.824219 4068.410156 910.371094 4081.601562 919.390625 C 4081.273438 919.726562 4080.929688 920.0625 4080.597656 920.398438 C 4095.855469 933.246094 4110.597656 946.8125 4124.816406 961.089844 C 4132.464844 971.324219 4140.84375 981.039062 4149.941406 990.230469 C 4156.351562 1000.910156 4164.058594 1011.121094 4173.054688 1020.875 C 4210.871094 1072.523438 4245.710938 1128.289062 4277.570312 1188.175781 Z M 4277.570312 1188.175781 "/>
</g>
<mask id="mask1">
  <g filter="url(#alpha)">
<rect x="0" y="0" width="6700" height="6699" style="fill:rgb(0%,0%,0%);fill-opacity:0.00392157;stroke:none;"/>
  </g>
</mask>
<clipPath id="clip2">
  <rect x="0" y="0" width="6700" height="6699"/>
</clipPath>
<g id="surface8" clip-path="url(#clip2)">
<path style=" stroke:none;fill-rule:evenodd;fill:rgb(99.607843%,100%,99.607843%);fill-opacity:1;" d="M 4277.570312 1187.171875 C 4278.90625 1187.84375 4278.90625 1187.84375 4277.570312 1187.171875 Z M 4277.570312 1187.171875 "/>
</g>
<mask id="mask2">
  <g filter="url(#alpha)">
<rect x="0" y="0" width="6700" height="6699" style="fill:rgb(0%,0%,0%);fill-opacity:0.992157;stroke:none;"/>
  </g>
</mask>
<clipPath id="clip3">
  <rect x="0" y="0" width="6700" height="6699"/>
</clipPath>
<g id="surface11" clip-path="url(#clip3)">
<path style=" stroke:none;fill-rule:evenodd;fill:rgb(99.607843%,100%,99.607843%);fill-opacity:1;" d="M 2580.207031 1452.4375 C 2594.710938 1453.816406 2608.4375 1455.320312 2621.410156 1456.960938 C 2621.078125 1457.292969 2620.738281 1457.632812 2620.40625 1457.964844 C 2624.464844 1458.136719 2628.484375 1458.636719 2632.464844 1459.472656 C 2641.046875 1462.34375 2649.75 1464.515625 2658.59375 1466.003906 C 2663.257812 1467.960938 2667.941406 1469.972656 2672.664062 1472.03125 C 2673.308594 1473.75 2673.308594 1475.589844 2672.664062 1477.558594 C 2667.386719 1477.277344 2662.363281 1478.28125 2657.589844 1480.574219 C 2649.75 1484.410156 2642.375 1488.933594 2635.480469 1494.136719 C 2630.15625 1500.707031 2626.980469 1508.246094 2625.933594 1516.746094 C 2625.894531 1523.277344 2625.21875 1529.648438 2623.921875 1535.835938 C 2623.753906 1555.429688 2623.59375 1575.023438 2623.421875 1594.617188 C 2624.65625 1659.09375 2626.164062 1723.574219 2627.945312 1788.042969 C 2635.753906 1974.402344 2643.449219 2160.289062 2651.058594 2345.703125 C 2658.28125 2492.183594 2664.976562 2638.554688 2671.15625 2784.800781 C 2672.363281 2789.042969 2673.035156 2793.394531 2673.167969 2797.863281 C 2673.980469 2807.621094 2673.808594 2817.339844 2672.664062 2827.003906 C 2673.167969 2828.007812 2673.667969 2829.015625 2674.171875 2830.019531 C 2674.503906 2829.6875 2674.84375 2829.34375 2675.175781 2829.015625 C 2685.757812 3067.632812 2696.984375 3307.117188 2708.84375 3547.445312 C 2709.433594 3547.65625 2709.9375 3547.988281 2710.347656 3548.449219 C 2721.292969 3779 2732.347656 4009.101562 2743.511719 4238.746094 C 2743.933594 4239.921875 2744.609375 4240.929688 2745.523438 4241.761719 C 2756.960938 4477.6875 2768.011719 4713.816406 2778.6875 4950.144531 C 2779.109375 4951.320312 2779.78125 4952.328125 2780.695312 4953.160156 C 2781.519531 4966.9375 2781.347656 4980.671875 2780.195312 4994.355469 C 2781.015625 4995.25 2782.023438 4995.582031 2783.207031 4995.363281 C 2784.6875 5043.714844 2786.023438 5091.945312 2787.226562 5140.054688 C 2731.371094 5150.070312 2675.425781 5158.28125 2619.402344 5164.671875 C 2618.9375 5165.082031 2618.609375 5165.585938 2618.398438 5166.179688 C 2511.378906 5180.464844 2403.003906 5194.535156 2293.296875 5208.378906 C 2290.332031 5208.308594 2287.648438 5207.644531 2285.253906 5206.371094 C 2283.40625 5185.097656 2282.402344 5163.65625 2282.242188 5142.0625 C 2281.066406 5138.496094 2280.390625 5134.816406 2280.230469 5131.011719 C 2279.40625 5121.050781 2279.578125 5111.175781 2280.734375 5101.367188 C 2279.808594 5100.996094 2278.976562 5100.496094 2278.222656 5099.859375 C 2277.214844 5072.398438 2276.210938 5044.929688 2275.207031 5017.46875 C 2274.875 5017.800781 2274.53125 5018.140625 2274.203125 5018.472656 C 2264.402344 4809.09375 2254.683594 4599.421875 2245.058594 4389.46875 C 2244.636719 4388.292969 2243.960938 4387.289062 2243.046875 4386.453125 C 2231.984375 4143.835938 2220.929688 3900.671875 2209.882812 3656.96875 C 2209.460938 3655.792969 2208.789062 3654.789062 2207.875 3653.953125 C 2196.890625 3407.355469 2185.664062 3160.847656 2174.207031 2914.421875 C 2173.617188 2914.210938 2173.113281 2913.878906 2172.703125 2913.417969 C 2171.878906 2899.640625 2172.046875 2885.90625 2173.203125 2872.21875 C 2172.378906 2871.324219 2171.375 2870.996094 2170.1875 2871.214844 C 2170.359375 2856.804688 2170.1875 2842.40625 2169.6875 2828.007812 C 2158.882812 2603.980469 2148.671875 2379.910156 2139.035156 2155.796875 C 2138.441406 2155.585938 2137.941406 2155.253906 2137.527344 2154.792969 C 2136.703125 2139.480469 2136.863281 2124.238281 2138.03125 2109.074219 C 2137.105469 2108.703125 2136.273438 2108.199219 2135.519531 2107.566406 C 2133.757812 2058.675781 2132.089844 2009.769531 2130.492188 1960.867188 C 2130.160156 1961.199219 2129.820312 1961.539062 2129.488281 1961.871094 C 2126.65625 1884.511719 2124.3125 1807.140625 2122.453125 1729.761719 C 2121.78125 1684.878906 2121.78125 1640.003906 2122.453125 1595.121094 C 2122.492188 1585.433594 2124.164062 1576.046875 2127.480469 1566.984375 C 2131.941406 1562.382812 2137.136719 1559.207031 2143.054688 1557.441406 C 2142.722656 1557.109375 2142.382812 1556.765625 2142.050781 1556.433594 C 2211.683594 1531.816406 2283.367188 1512.394531 2357.109375 1498.15625 C 2357.570312 1497.746094 2357.902344 1497.242188 2358.113281 1496.648438 C 2431.828125 1480.503906 2505.851562 1465.761719 2580.207031 1452.4375 Z M 2580.207031 1452.4375 "/>
</g>
<mask id="mask3">
  <g filter="url(#alpha)">
<rect x="0" y="0" width="6700" height="6699" style="fill:rgb(0%,0%,0%);fill-opacity:0.00392157;stroke:none;"/>
  </g>
</mask>
<clipPath id="clip4">
  <rect x="0" y="0" width="6700" height="6699"/>
</clipPath>
<g id="surface14" clip-path="url(#clip4)">
<path style=" stroke:none;fill-rule:evenodd;fill:rgb(99.607843%,100%,99.607843%);fill-opacity:1;" d="M 3881.617188 5175.222656 C 3880.945312 5173.886719 3880.945312 5173.886719 3881.617188 5175.222656 Z M 3881.617188 5175.222656 "/>
</g>
<mask id="mask4">
  <g filter="url(#alpha)">
<rect x="0" y="0" width="6700" height="6699" style="fill:rgb(0%,0%,0%);fill-opacity:0.00392157;stroke:none;"/>
  </g>
</mask>
<clipPath id="clip5">
  <rect x="0" y="0" width="6700" height="6699"/>
</clipPath>
<g id="surface17" clip-path="url(#clip5)">
<path style=" stroke:none;fill-rule:evenodd;fill:rgb(99.607843%,100%,99.607843%);fill-opacity:1;" d="M 3846.445312 5239.527344 C 3845.773438 5238.191406 3845.773438 5238.191406 3846.445312 5239.527344 Z M 3846.445312 5239.527344 "/>
</g>
<mask id="mask5">
  <g filter="url(#alpha)">
<rect x="0" y="0" width="6700" height="6699" style="fill:rgb(0%,0%,0%);fill-opacity:0.713725;stroke:none;"/>
  </g>
</mask>
<clipPath id="clip6">
  <rect x="0" y="0" width="6700" height="6699"/>
</clipPath>
<g id="surface20" clip-path="url(#clip6)">
<path style=" stroke:none;fill-rule:evenodd;fill:rgb(99.607843%,100%,99.607843%);fill-opacity:1;" d="M 2291.789062 6025.28125 C 2300.339844 6024.71875 2308.722656 6025.554688 2316.910156 6027.792969 C 2318.539062 6031.058594 2317.867188 6033.742188 2314.902344 6035.832031 C 2306.863281 6036.503906 2298.824219 6036.503906 2290.78125 6035.832031 C 2287.617188 6033.894531 2286.28125 6031.039062 2286.761719 6027.292969 C 2288.972656 6027.671875 2290.640625 6027 2291.789062 6025.28125 Z M 2291.789062 6025.28125 "/>
</g>
</defs>
<g id="surface1">
<use xlink:href="#surface5" mask="url(#mask0)"/>
<use xlink:href="#surface8" mask="url(#mask1)"/>
<use xlink:href="#surface11" mask="url(#mask2)"/>
<use xlink:href="#surface14" mask="url(#mask3)"/>
<use xlink:href="#surface17" mask="url(#mask4)"/>
<use xlink:href="#surface20" mask="url(#mask5)"/>
</g>
</svg>
